<!-- Generated by IcoMoon.io -->
<svg version="1.1" xmlns="http://www.w3.org/2000/svg" width="32" height="32" viewBox="0 0 32 32">
<title>twitter</title>
<path d="M16 1.466c-8.014 0-14.535 6.519-14.535 14.534s6.521 14.534 14.535 14.534 14.535-6.519 14.535-14.534-6.521-14.534-14.535-14.534zM16 29.566c-7.48 0-13.565-6.086-13.565-13.566s6.085-13.566 13.565-13.566 13.565 6.086 13.565 13.566-6.085 13.566-13.565 13.566zM23.971 11.509c0.1-0.185 0.183-0.38 0.247-0.583 0.061-0.192-0.002-0.401-0.16-0.527s-0.376-0.14-0.548-0.038c-0.465 0.277-0.965 0.48-1.492 0.61-0.633-0.572-1.464-0.895-2.322-0.895-1.908 0-3.46 1.552-3.46 3.458 0 0.048 0.001 0.095 0.003 0.143-2.026-0.253-3.896-1.283-5.198-2.881-0.1-0.123-0.254-0.188-0.413-0.177-0.159 0.013-0.301 0.101-0.381 0.24-0.306 0.526-0.469 1.127-0.469 1.739 0 0.58 0.144 1.139 0.409 1.633-0.067 0.011-0.133 0.035-0.194 0.071-0.148 0.088-0.239 0.265-0.239 0.436 0 1.029 0.458 1.973 1.196 2.615-0.011 0.010-0.021 0.021-0.032 0.032-0.113 0.129-0.15 0.306-0.098 0.47 0.318 0.992 1.055 1.764 1.98 2.144-0.944 0.467-2.040 0.649-3.087 0.525-0.221-0.020-0.436 0.105-0.513 0.319-0.075 0.212 0.005 0.449 0.195 0.571 1.443 0.925 3.11 1.413 4.821 1.413 5.602 0 8.95-4.55 8.95-8.949 0-0.050 0-0.099-0.001-0.149 0.541-0.422 1.011-0.927 1.397-1.505 0.12-0.179 0.107-0.416-0.032-0.581-0.137-0.162-0.363-0.218-0.558-0.136zM22.39 13.1c-0.133 0.096-0.209 0.253-0.201 0.418 0.005 0.12 0.008 0.241 0.008 0.361 0 3.923-2.985 7.981-7.98 7.981-0.896 0-1.78-0.15-2.617-0.442 1.002-0.191 1.941-0.618 2.76-1.26 0.161-0.127 0.226-0.341 0.16-0.536s-0.246-0.326-0.45-0.33c-0.808-0.016-1.54-0.418-1.989-1.053 0.229-0.015 0.454-0.053 0.673-0.112 0.217-0.059 0.364-0.259 0.356-0.484s-0.169-0.414-0.389-0.459c-0.909-0.182-1.623-0.855-1.886-1.727 0.241 0.061 0.489 0.096 0.736 0.104 0.213-0.001 0.411-0.131 0.477-0.336s-0.012-0.431-0.192-0.55c-0.693-0.464-1.108-1.238-1.108-2.073 0-0.202 0.024-0.402 0.072-0.596 1.569 1.609 3.698 2.581 5.954 2.694 0.16 0.001 0.299-0.056 0.396-0.173s0.134-0.272 0.1-0.421c-0.043-0.184-0.064-0.375-0.064-0.568 0-1.373 1.118-2.49 2.491-2.49 0.686 0 1.349 0.286 1.817 0.787 0.114 0.122 0.283 0.176 0.448 0.144 0.15-0.030 0.297-0.064 0.443-0.104-0.065 0.049-0.133 0.094-0.205 0.137-0.196 0.117-0.283 0.356-0.209 0.572s0.294 0.357 0.516 0.324c0.055-0.006 0.11-0.014 0.165-0.021-0.090 0.074-0.184 0.146-0.28 0.215z"></path>
</svg>
